<?xml version="1.0" standalone="no"?>
<!DOCTYPE svg PUBLIC "-//W3C//DTD SVG 1.1//EN" "http://www.w3.org/Graphics/SVG/1.1/DTD/svg11.dtd" >
<svg xmlns="http://www.w3.org/2000/svg">
<metadata></metadata>
<defs>
<font id="corpid_heavyregular" horiz-adv-x="1126" >
<font-face units-per-em="2048" ascent="1638" descent="-410" />
<missing-glyph horiz-adv-x="552" />
<glyph horiz-adv-x="2048" />
<glyph horiz-adv-x="2048" />
<glyph horiz-adv-x="682" />
<glyph horiz-adv-x="716" d="M0 1536h209q0 -71 35.5 -109t105.5 -38q139 0 139 147h209q0 -185 -93 -276t-257 -91q-163 0 -255.5 92t-92.5 275z" />
<glyph horiz-adv-x="632" d="M119 1360q0 87 54 139.5t142 52.5q90 0 144.5 -52.5t54.5 -139.5q0 -86 -55 -138.5t-144 -52.5q-88 0 -142 52.5t-54 138.5z" />
<glyph horiz-adv-x="659" d="M0 1415q0 116 71.5 179t207.5 63q134 0 202 -59t68 -168q0 -112 -73 -175t-208 -63t-201.5 58t-66.5 165zM188 1427q0 -56 21 -80t67 -24q82 0 82 98q0 56 -21.5 80.5t-66.5 24.5q-41 0 -61.5 -27t-20.5 -72z" />
<glyph unicode="&#xa;" horiz-adv-x="944" d="M0 1268l240 352l223 -125l-303 -305zM420 1268l258 340l229 -125l-323 -293z" />
<glyph horiz-adv-x="675" d="M109 -244q0 140 110 244h262q-106 -85 -106 -176q0 -64 67 -64q51 0 103 27l59 -160q-103 -59 -252 -59q-106 0 -174.5 47t-68.5 141z" />
<glyph horiz-adv-x="776" d="M0 1466l115 148l233 -166l236 166l108 -146l-346 -292z" />
<glyph unicode="&#xd;" horiz-adv-x="641" d="M27 805v258h493v-1063h-342v805h-151z" />
<glyph horiz-adv-x="833" d="M-207 74l1069 1415l182 -129l-1069 -1415z" />
<glyph horiz-adv-x="1329" d="M31 805v258h145v82q0 204 84.5 311t282.5 107q93 0 190 -19v-239h-94q-66 0 -92.5 -37.5t-26.5 -106.5v-98h686v-1063h-342v805h-344v-805h-344v805h-145zM838 1360q0 87 54 139.5t144 52.5q88 0 142.5 -52.5t54.5 -139.5t-54.5 -140t-142.5 -53q-89 0 -143.5 52.5 t-54.5 140.5z" />
<glyph horiz-adv-x="1355" d="M31 805v258h145v53q0 117 21.5 195.5t77 137.5t155.5 86.5t252 27.5q239 0 510 -35v-1190q0 -51 18 -73.5t60 -22.5h59v-242q-97 -29 -205 -29q-131 0 -202.5 62.5t-71.5 214.5v1048q-88 9 -166 9q-98 0 -131 -42t-33 -135v-65h172v-258h-172v-805h-344v805h-145z" />
<glyph horiz-adv-x="983" d="M6 840l148 82v508h362v-320l199 109l47 -242l-246 -133v-557h442v-287h-804v653l-101 -55z" />
<glyph horiz-adv-x="653" d="M6 995l133 72v469h338v-293l88 51l45 -235l-133 -72v-686q0 -39 21 -59.5t57 -20.5h63v-221q-113 -25 -163 -25q-60 0 -105.5 5.5t-86.5 20.5t-67 40t-41.5 65.5t-15.5 96.5v608l-86 -51z" />
<glyph horiz-adv-x="1095" d="M51 0v270l555 879h-526v281h938v-273l-547 -878h563v-279h-983zM211 1681l72 156l268 -104l268 104l70 -154l-338 -174z" />
<glyph horiz-adv-x="976" d="M70 0v254l405 537h-379v272h793v-258l-400 -533h426v-272h-845zM147 1466l115 148l234 -166l235 166l109 -146l-346 -292z" />
<glyph unicode=" "  horiz-adv-x="552" />
<glyph unicode="&#x09;" horiz-adv-x="552" />
<glyph unicode="&#xa0;" horiz-adv-x="552" />
<glyph unicode="!" horiz-adv-x="737" d="M215 172q0 83 56 139t139 56t138.5 -56t55.5 -139q0 -84 -55.5 -140.5t-138.5 -56.5t-139 57t-56 140zM223 1536h373l-39 -1069h-295z" />
<glyph unicode="&#x22;" horiz-adv-x="1050" d="M119 1536h299l-29 -567h-239zM559 1536h299l-29 -567h-239z" />
<glyph unicode="#" d="M45 387v223h154l26 230h-133v223h160l43 367h254l-41 -367h192l43 367h254l-41 -367h127v-223h-153l-27 -230h131v-223h-155l-45 -387h-256l45 387h-193l-45 -387h-256l45 387h-129zM455 610h192l27 230h-193z" />
<glyph unicode="$" d="M78 57l57 269q158 -60 346 -60q97 0 146 34.5t49 98.5q0 46 -32.5 75.5t-84.5 45.5t-114.5 31t-125 39.5t-114.5 61t-84.5 105.5t-32.5 165q0 159 94.5 264t251.5 137v223h254v-217q121 -8 258 -61l-65 -244q-54 21 -131.5 35t-147.5 14q-158 0 -158 -117 q0 -39 32.5 -65.5t84.5 -42t114.5 -30.5t125 -40.5t114.5 -63.5t84.5 -107t32.5 -163q0 -91 -28 -166t-77 -126t-108.5 -84.5t-130.5 -51.5v-254h-254v230q-174 3 -356 65z" />
<glyph unicode="%" horiz-adv-x="1656" d="M61 1092q0 181 94 275.5t261 94.5q174 0 257 -90t83 -280q0 -194 -97 -283.5t-260 -89.5q-338 0 -338 373zM203 74l1069 1415l182 -129l-1069 -1415zM307 1092q0 -105 23.5 -146t75.5 -41q56 0 80 44t24 143q0 107 -23.5 145.5t-74.5 38.5q-56 0 -80.5 -42t-24.5 -142z M899 338q0 183 93.5 278t260.5 95q174 0 257 -90.5t83 -282.5q0 -99 -27 -172t-76 -116t-112 -63t-141 -20q-338 0 -338 371zM1145 338q0 -104 23 -144t75 -40q57 0 81 43t24 141q0 108 -24 147t-75 39q-56 0 -80 -42t-24 -144z" />
<glyph unicode="&#x26;" horiz-adv-x="1529" d="M102 389q0 117 57.5 209.5t178.5 175.5q-68 86 -102.5 162.5t-34.5 161.5q0 168 113 266t311 98q60 0 116 -10.5t109 -34.5t92 -60.5t62.5 -92t23.5 -125.5q0 -122 -64.5 -208t-205.5 -177q113 -105 284 -234q48 121 48 277h290q-6 -253 -106 -445q162 -112 217 -147 l-172 -250q-143 101 -227 166q-192 -154 -457 -154q-254 0 -393.5 107t-139.5 315zM428 424q0 -97 62 -151t180 -54q109 0 196 70q-77 57 -181 145t-173 156q-84 -77 -84 -166zM492 1112q0 -43 21 -85t71 -105q83 56 117 100t34 96q0 55 -31.5 87t-91.5 32q-56 0 -88 -36 t-32 -89z" />
<glyph unicode="'" horiz-adv-x="548" d="M119 1536h309l-29 -567h-249z" />
<glyph unicode="(" horiz-adv-x="716" d="M98 594q0 533 258 1012l267 -101q-174 -436 -174 -909q0 -472 174 -911l-267 -101q-258 482 -258 1010z" />
<glyph unicode=")" horiz-adv-x="716" d="M94 -315q174 436 174 909q0 475 -174 911l266 101q258 -479 258 -1010q0 -530 -258 -1012z" />
<glyph unicode="*" d="M106 1026l275 104l-275 103l136 233l231 -186l-53 289h272l-53 -287l231 184l136 -233l-275 -100l275 -107l-136 -233l-227 188l49 -291h-272l53 287l-231 -184z" />
<glyph unicode="+" d="M57 508v254h367v397h278v-397h367v-254h-367v-399h-278v399h-367z" />
<glyph unicode="," horiz-adv-x="598" d="M41 -233q143 137 143 202q0 20 -11.5 42t-26 40.5t-26 54t-11.5 78.5q0 83 52.5 136t135.5 53q105 0 162 -87q63 -97 28 -240q-46 -192 -249 -361q-29 -24 -60 -47z" />
<glyph unicode="-" horiz-adv-x="634" d="M74 412v278h549v-278h-549z" />
<glyph unicode="." horiz-adv-x="598" d="M100 178q0 83 57 140t142 57q84 0 140.5 -56.5t56.5 -140.5q0 -85 -56 -141.5t-141 -56.5t-142 56.5t-57 141.5z" />
<glyph unicode="/" horiz-adv-x="1040" d="M12 -262l674 1929l311 -92l-675 -1931z" />
<glyph unicode="0" d="M41 598q0 139 28.5 250.5t89 199.5t164.5 136.5t246 48.5q124 0 217 -35t149 -92t90.5 -141t47 -169.5t12.5 -189.5q0 -142 -29 -255.5t-90 -201t-164.5 -135t-244.5 -47.5q-121 0 -212.5 32.5t-148.5 87t-92.5 137t-49 172.5t-13.5 202zM399 610q0 -151 20 -236.5 t55.5 -116t94.5 -30.5q89 0 122.5 83t33.5 286q0 208 -38 292.5t-128 84.5q-84 0 -122 -83t-38 -280z" />
<glyph unicode="1" d="M100 969l373 243h313v-938h258v-274h-901v274h285v605l-238 -115z" />
<glyph unicode="2" d="M72 0v266l274 207q149 112 199.5 185t50.5 147q0 66 -43 102.5t-121 36.5q-141 0 -282 -63l-60 276q207 76 428 76q235 0 364.5 -92.5t129.5 -270.5q0 -141 -70.5 -248.5t-263.5 -244.5l-123 -92h502v-285h-985z" />
<glyph unicode="3" d="M72 29q177 -13 305 -13q125 0 188.5 47t63.5 127q0 97 -70.5 142t-218.5 45h-125v256h145q133 0 195.5 45t62.5 121q0 155 -188 155q-129 0 -287 -67l-57 262q221 84 438 84q229 0 359.5 -99.5t130.5 -269.5q0 -123 -69 -213t-195 -123v-4q133 -10 217 -103.5t84 -221.5 q0 -94 -30.5 -170.5t-83 -129t-125 -88t-154.5 -51.5t-173 -16q-246 0 -413 29v256z" />
<glyph unicode="4" d="M31 33v319l444 848h481v-883h136v-284h-136v-258h-346v258h-579zM301 317h309v578h-4z" />
<glyph unicode="5" d="M90 31q154 -15 324 -15q256 0 256 191q0 93 -57.5 142.5t-192.5 49.5q-133 0 -287 -22l12 823h809v-299h-518l-4 -239q98 4 146 4q475 0 475 -428q0 -232 -160 -363t-430 -131q-185 0 -373 29v258z" />
<glyph unicode="6" d="M66 655q0 136 17.5 249.5t62 218.5t113.5 178t178.5 116t250.5 43q152 0 309 -53l-55 -236q-128 39 -252 39q-76 0 -133 -29.5t-89.5 -80t-48 -110t-16.5 -128.5v-6q50 35 121 57.5t146 22.5q216 0 310.5 -118.5t94.5 -342.5q0 -226 -136.5 -367t-363.5 -141 q-271 0 -390 169t-119 519zM412 614q0 -211 37 -298t122 -87q154 0 154 226q0 116 -30.5 166.5t-104.5 50.5q-90 0 -178 -58z" />
<glyph unicode="7" d="M82 901v299h965v-297l-357 -770q-105 -216 -252 -391l-270 125q112 193 221 440l256 594h-563z" />
<glyph unicode="8" d="M41 350q0 223 258 369q-105 64 -164 147.5t-59 204.5q0 185 126 288t367 103q245 0 363.5 -95.5t118.5 -270.5q0 -200 -220 -334q254 -138 254 -369q0 -210 -135 -318t-397 -108q-252 0 -382 91t-130 292zM391 375q0 -76 43.5 -113t132.5 -37q82 0 124 38t42 110 q0 65 -44.5 113.5t-145.5 105.5q-152 -106 -152 -217zM418 1073q0 -58 39 -104t127 -92q125 89 125 186q0 145 -148 145q-73 0 -108 -36.5t-35 -98.5z" />
<glyph unicode="9" d="M53 727q0 228 136 367t362 139q272 0 391 -168t119 -518q0 -807 -625 -807q-168 0 -344 33l23 247q179 -28 317 -28q278 0 293 346l-2 6q-112 -80 -264 -80q-215 0 -310.5 118t-95.5 345zM401 752q0 -119 30.5 -172.5t105.5 -53.5q86 0 180 60q0 211 -37.5 299t-122.5 88 q-156 0 -156 -221z" />
<glyph unicode=":" horiz-adv-x="638" d="M141 178q0 83 57 140t142 57q84 0 140.5 -56.5t56.5 -140.5q0 -85 -56 -141.5t-141 -56.5t-142 56.5t-57 141.5zM141 866q0 85 57 142t142 57t141 -57t56 -142t-56 -140.5t-141 -55.5t-142 56t-57 140z" />
<glyph unicode=";" horiz-adv-x="638" d="M82 -233q143 137 143 202q0 24 -18.5 51.5t-37.5 68t-19 95.5q0 83 52.5 136t135.5 53q105 0 162 -87q63 -97 28 -240q-46 -192 -249 -361q-29 -24 -60 -47zM141 866q0 85 57 142t142 57t141 -57t56 -142t-56 -140.5t-141 -55.5t-142 56t-57 140z" />
<glyph unicode="&#x3c;" d="M86 504v268l905 445v-302l-610 -274l610 -274v-308z" />
<glyph unicode="=" d="M98 283v252h930v-252h-930zM98 739v252h930v-252h-930z" />
<glyph unicode="&#x3e;" d="M135 59v301l610 275l-610 274v308l905 -445v-268z" />
<glyph unicode="?" horiz-adv-x="970" d="M115 1278v248q129 35 280 35q258 0 381 -95t123 -270q0 -74 -19.5 -136t-50.5 -106t-68 -84.5t-72.5 -80t-64 -83.5t-43 -105t-8.5 -134h-301q-15 77 -11.5 141.5t19.5 110.5t41.5 86.5t54 70t58 60.5t52.5 58.5t38 64t15 76.5q0 157 -209 157q-108 0 -215 -14zM233 172 q0 83 56 139t139 56q85 0 141 -56t56 -139q0 -84 -56.5 -140.5t-140.5 -56.5q-83 0 -139 57t-56 140z" />
<glyph unicode="@" horiz-adv-x="1804" d="M131 578q0 208 72 378.5t198.5 283.5t298 174t371.5 61q129 0 229 -24t162.5 -64.5t102.5 -97.5t55.5 -117.5t15.5 -131.5v-737h-254l-30 129q-106 -158 -326 -158q-159 0 -259.5 88.5t-100.5 229.5q0 201 137 286t430 85h72v63q0 104 -57.5 152.5t-205.5 48.5 q-178 0 -316.5 -74.5t-219 -219t-80.5 -337.5q0 -188 76 -332t226 -226.5t355 -82.5q249 0 482 108l65 -235q-266 -125 -583 -125q-208 0 -379.5 63.5t-289.5 178t-182.5 277t-64.5 356.5zM995 627q0 -52 31 -82.5t88 -30.5q104 0 191 107v139h-80q-121 0 -175.5 -31 t-54.5 -102z" />
<glyph unicode="A" horiz-adv-x="1443" d="M18 0q203 694 478 1430h444q291 -758 485 -1430h-405q-13 44 -39 144t-39 147h-489q-28 -91 -82 -291h-353zM528 563h342q-109 354 -168 527h-2q-113 -335 -172 -527z" />
<glyph unicode="B" horiz-adv-x="1284" d="M133 0v1430h481q527 0 527 -363q0 -103 -56 -179.5t-149 -109.5q127 -21 206 -109t79 -225q0 -121 -50 -209.5t-137.5 -138.5t-191.5 -73t-228 -23h-481zM483 268h166q92 0 145.5 43.5t53.5 120.5q0 174 -227 174h-138v-338zM483 860h133q83 0 124.5 43t41.5 113 q0 151 -184 151h-115v-307z" />
<glyph unicode="C" horiz-adv-x="1187" d="M76 692q0 184 51 330t143 241.5t220 146t284 50.5q212 0 377 -82l-102 -276q-121 59 -256 59q-157 0 -245.5 -124t-88.5 -320q0 -230 96.5 -338.5t267.5 -108.5q120 0 246 58l88 -277q-76 -36 -180 -59t-193 -23q-342 0 -525 182t-183 541z" />
<glyph unicode="D" horiz-adv-x="1462" d="M133 0v1430h524q355 0 546.5 -175t191.5 -522q0 -186 -54.5 -327.5t-156 -229.5t-241 -132t-314.5 -44h-496zM492 279h143q190 0 288.5 113.5t98.5 324.5q0 97 -21 174.5t-65.5 138t-121 93t-181.5 32.5h-141v-876z" />
<glyph unicode="E" horiz-adv-x="1124" d="M133 0v1430h883v-275h-524v-283h448v-270h-448v-328h532v-274h-891z" />
<glyph unicode="F" horiz-adv-x="1034" d="M133 0v1430h823v-275h-462v-307h409v-273h-409v-575h-361z" />
<glyph unicode="G" horiz-adv-x="1443" d="M70 698q0 357 205.5 559.5t562.5 202.5q267 0 491 -119l-104 -268q-190 96 -379 96q-186 0 -298 -122t-112 -330q0 -221 105.5 -336t294.5 -115q59 0 122 17v508h361v-742q-217 -80 -504 -80q-355 0 -550 189.5t-195 539.5z" />
<glyph unicode="H" horiz-adv-x="1460" d="M133 0v1430h361v-541h473v541h360v-1430h-360v582h-473v-582h-361z" />
<glyph unicode="I" horiz-adv-x="626" d="M133 0v1430h361v-1430h-361z" />
<glyph unicode="J" horiz-adv-x="757" d="M25 -8v287h106q67 0 100 33.5t33 113.5v1004h363v-992q0 -113 -18.5 -195.5t-62.5 -146.5t-123 -96.5t-194 -32.5q-101 0 -204 25z" />
<glyph unicode="K" horiz-adv-x="1347" d="M133 0v1430h361v-521l391 521h432l-471 -551l489 -879h-430l-321 627l-90 -113v-514h-361z" />
<glyph unicode="L" horiz-adv-x="960" d="M133 0v1430h361v-1143h442v-287h-803z" />
<glyph unicode="M" horiz-adv-x="1978" d="M117 0q3 668 84 1430h522l264 -908h2l273 908h522q75 -707 78 -1430h-363q-4 661 -41 1069h-2l-319 -1069h-338l-312 1069h-2q-40 -502 -43 -1069h-325z" />
<glyph unicode="N" horiz-adv-x="1509" d="M133 0v1430h465l461 -924h4v924h313v-1430h-458l-467 934h-5v-934h-313z" />
<glyph unicode="O" horiz-adv-x="1579" d="M76 711q0 352 187.5 551.5t533.5 199.5q342 0 524 -180.5t182 -552.5q0 -366 -184 -564t-537 -198q-352 0 -529 177.5t-177 566.5zM455 731q0 -237 77 -354t263 -117q329 0 329 449q0 226 -77.5 343t-264.5 117q-327 0 -327 -438z" />
<glyph unicode="P" horiz-adv-x="1230" d="M133 0v1430h471q109 0 203 -17q179 -33 277 -142t98 -288q0 -258 -151 -389t-437 -131h-100v-463h-361zM494 735h112q101 0 149 59.5t48 161.5q0 153 -115 189q-41 14 -106 14h-88v-424z" />
<glyph unicode="Q" horiz-adv-x="1591" d="M76 711q0 352 187.5 551.5t533.5 199.5q342 0 524 -180.5t182 -552.5q0 -319 -139 -514l219 -209l-184 -182l-238 227q-153 -84 -379 -84q-352 0 -529 177.5t-177 566.5zM455 731q0 -237 77 -354t263 -117q66 0 116 29l-176 168l185 182l167 -162q37 90 37 232 q0 226 -77.5 343t-264.5 117q-327 0 -327 -438z" />
<glyph unicode="R" horiz-adv-x="1300" d="M133 0v1430h541q115 0 208.5 -23t164.5 -70t110 -124.5t39 -180.5q0 -151 -66.5 -248.5t-187.5 -140.5l330 -643h-416l-260 547h-102v-547h-361zM494 811h104q107 0 163 49.5t56 136.5q0 72 -43.5 117t-136.5 45h-143v-348z" />
<glyph unicode="S" horiz-adv-x="1116" d="M80 23l37 288q154 -55 323 -55q126 0 180 36.5t54 110.5q0 68 -51 106t-189 85q-87 31 -148.5 66.5t-109.5 86t-72 119t-24 156.5q0 107 42 192t115.5 138.5t169.5 81.5t207 28q202 0 357 -57l-49 -275q-149 56 -295 56q-79 0 -122.5 -30.5t-43.5 -88.5 q0 -67 43.5 -102.5t146.5 -73.5q156 -57 221 -96q157 -96 179 -269q4 -32 4 -67q0 -125 -45.5 -220.5t-126.5 -154t-186.5 -88t-231.5 -29.5q-108 0 -188 12.5t-197 43.5z" />
<glyph unicode="T" horiz-adv-x="1132" d="M18 1141v289h1094v-289h-364v-1141h-363v1141h-367z" />
<glyph unicode="U" horiz-adv-x="1492" d="M131 524v906h361v-881q0 -143 71 -217t191 -74q118 0 186 74t68 200v898h354v-893q0 -268 -158.5 -418t-460.5 -150q-300 0 -456 138.5t-156 416.5z" />
<glyph unicode="V" horiz-adv-x="1400" d="M14 1430h408q55 -236 138.5 -530t164.5 -535h2q204 634 299 1065h365q-167 -623 -459 -1430h-461q-264 719 -457 1430z" />
<glyph unicode="W" horiz-adv-x="2107" d="M55 1430h396q29 -250 77 -541.5t99 -513.5h2l239 1055h402l246 -1055h2q128 570 182 1055h354q-96 -638 -299 -1430h-485l-217 926h-2l-213 -926h-490q-187 709 -293 1430z" />
<glyph unicode="X" horiz-adv-x="1353" d="M8 0l410 743l-367 687h426l207 -429l201 429h413l-364 -682l407 -748h-436l-235 485l-232 -485h-430z" />
<glyph unicode="Y" horiz-adv-x="1253" d="M6 1430h410q91 -293 229 -558q134 245 221 558h381q-179 -493 -436 -883v-547h-362v547q-257 407 -443 883z" />
<glyph unicode="Z" horiz-adv-x="1095" d="M51 0v270l555 879h-526v281h938v-273l-547 -878h563v-279h-983z" />
<glyph unicode="[" horiz-adv-x="763" d="M145 -385v1962h514v-244h-190v-1474h190v-244h-514z" />
<glyph unicode="\" horiz-adv-x="1040" d="M43 1575l311 92l674 -1929l-311 -94z" />
<glyph unicode="]" horiz-adv-x="763" d="M104 -141h191v1474h-191v244h512v-1962h-512v244z" />
<glyph unicode="^" d="M57 731l305 699h408l311 -699h-336l-180 445l-174 -445h-334z" />
<glyph unicode="_" d="M0 -209h1126v-244h-1126v244z" />
<glyph unicode="`" horiz-adv-x="659" d="M0 1468l240 142l260 -332l-166 -104z" />
<glyph unicode="a" horiz-adv-x="1161" d="M59 303q0 188 142 273.5t432 85.5h72v43q0 76 -40 109.5t-151 33.5q-157 0 -313 -64l-56 238q83 34 194.5 54t215.5 20q253 0 370 -90.5t117 -292.5v-713h-260l-22 94q-130 -127 -328 -127q-167 0 -270 86t-103 250zM393 322q0 -51 33 -82t96 -31q100 0 183 90v154h-80 q-124 0 -178 -31t-54 -100z" />
<glyph unicode="b" horiz-adv-x="1255" d="M119 53v1483h344v-547q120 107 285 107q110 0 195.5 -39.5t138 -110.5t79.5 -163.5t27 -202.5q0 -286 -149.5 -445.5t-452.5 -159.5q-204 0 -467 78zM463 285q68 -39 145 -39q107 0 164 74t57 215q0 142 -36 212t-121 70q-107 0 -209 -117v-415z" />
<glyph unicode="c" horiz-adv-x="921" d="M66 510q0 280 145 430t395 150q155 0 271 -54l-70 -254q-82 35 -170 35q-109 0 -163 -72t-54 -208q0 -141 53 -212t168 -71q94 0 186 39l60 -252q-160 -70 -322 -70q-245 0 -372 141.5t-127 397.5z" />
<glyph unicode="d" horiz-adv-x="1255" d="M66 485q0 131 34 239.5t101 190t175.5 127t248.5 45.5q91 0 168 -18v467h342v-1536h-261l-22 117q-144 -150 -336 -150q-150 0 -253 69t-150 183.5t-47 265.5zM426 528q0 -142 37 -212t125 -70q56 0 103 27t102 89v412q-59 41 -154 41q-213 0 -213 -287z" />
<glyph unicode="e" horiz-adv-x="1169" d="M66 516q0 274 141 427t405 153q248 0 364 -127.5t116 -384.5q0 -20 -5 -142h-671q0 -104 59 -157.5t189 -53.5q189 0 362 43l29 -245q-215 -62 -441 -62q-280 0 -414 133t-134 416zM416 651h340q1 12 1 23q0 188 -163 188q-86 0 -130.5 -59.5t-47.5 -151.5z" />
<glyph unicode="f" horiz-adv-x="735" d="M31 805v258h145v86q0 98 19 171.5t61 129.5t114 84.5t173 28.5q93 0 190 -19v-239h-96q-65 0 -91 -37.5t-26 -106.5v-98h185v-258h-185v-805h-344v805h-145z" />
<glyph unicode="g" horiz-adv-x="1255" d="M66 506q0 270 153 428t451 158q208 0 465 -78v-969q0 -485 -566 -485q-203 0 -354 34l10 256q142 -26 328 -26q128 0 184 36t56 126v106q-116 -98 -271 -98q-116 0 -204.5 39.5t-143 110t-81.5 162t-27 200.5zM426 545q0 -91 14.5 -149.5t53.5 -93t106 -34.5 q109 0 193 94v426q-53 37 -146 37q-106 0 -163.5 -73t-57.5 -207z" />
<glyph unicode="h" horiz-adv-x="1253" d="M119 0v1536h344v-559q65 58 135.5 88.5t167.5 30.5q183 0 279 -109t96 -311v-676h-344v602q0 110 -30 162.5t-103 52.5q-58 0 -100 -26t-101 -89v-702h-344z" />
<glyph unicode="i" horiz-adv-x="641" d="M27 805v258h493v-1063h-342v805h-151zM147 1360q0 87 54.5 139.5t144.5 52.5q88 0 142.5 -52.5t54.5 -139.5t-54.5 -140t-142.5 -53q-90 0 -144.5 53t-54.5 140z" />
<glyph unicode="j" horiz-adv-x="608" d="M-47 -426l8 268h66q60 0 89 31.5t29 110.5v1079h344v-1063q0 -442 -370 -442q-91 0 -166 16zM121 1360q0 87 54 139.5t142 52.5q90 0 144.5 -52.5t54.5 -139.5t-54.5 -140t-144.5 -53q-88 0 -142 53t-54 140z" />
<glyph unicode="k" horiz-adv-x="1171" d="M119 0v1536h344v-803l258 330h412l-338 -358l366 -705h-405l-213 471l-80 -88v-383h-344z" />
<glyph unicode="l" horiz-adv-x="624" d="M119 248v1288h344v-1198q0 -52 17 -74t59 -22h61v-242q-97 -29 -205 -29q-131 0 -203.5 62.5t-72.5 214.5z" />
<glyph unicode="m" horiz-adv-x="1888" d="M119 0v1063h260l27 -115q76 78 152 113t183 35q232 0 316 -154q79 82 156 118t186 36q377 0 377 -420v-676h-344v602q0 113 -26 164t-97 51q-58 0 -94.5 -25t-96.5 -90v-702h-342v602q0 113 -26 164t-97 51q-58 0 -95.5 -25.5t-94.5 -89.5v-702h-344z" />
<glyph unicode="n" horiz-adv-x="1253" d="M119 0v1063h260l27 -115q80 79 159 113.5t189 34.5q195 0 291 -107.5t96 -312.5v-676h-344v602q0 109 -31 162t-102 53q-58 0 -100 -26t-101 -89v-702h-344z" />
<glyph unicode="o" horiz-adv-x="1261" d="M66 510q0 276 148 431t427 155q274 0 414.5 -146t140.5 -409q0 -266 -150.5 -420t-427.5 -154q-278 0 -415 143t-137 400zM420 539q0 -162 51.5 -234t165.5 -72q103 0 153 77t50 210q0 158 -51.5 232.5t-161.5 74.5q-106 0 -156.5 -77t-50.5 -211z" />
<glyph unicode="p" horiz-adv-x="1255" d="M119 -410v1473h260l24 -117q144 150 334 150q114 0 201.5 -39t141.5 -109.5t81 -163.5t27 -206q0 -131 -34 -239.5t-101 -190.5t-175 -127.5t-247 -45.5q-85 0 -168 17v-402h-344zM463 289q62 -43 153 -43q213 0 213 289q0 143 -37 212.5t-126 69.5q-55 0 -102 -28 t-101 -89v-411z" />
<glyph unicode="q" horiz-adv-x="1255" d="M66 483q0 286 149.5 445t454.5 159q205 0 465 -77v-1420h-342v484q-122 -107 -285 -107q-110 0 -195.5 39.5t-139 110t-80.5 163.5t-27 203zM426 528q0 -142 36.5 -212t121.5 -70q108 0 209 116v416q-72 37 -146 37q-108 0 -164.5 -72.5t-56.5 -214.5z" />
<glyph unicode="r" horiz-adv-x="808" d="M119 0v1063h266l31 -154q72 103 127.5 145t136.5 42q70 0 111 -13l-33 -325q-40 12 -107 12q-80 0 -188 -145v-625h-344z" />
<glyph unicode="s" horiz-adv-x="913" d="M68 6l45 264q143 -45 262 -45q127 0 127 80q0 38 -33 63t-115 50q-148 42 -217 113.5t-69 209.5q0 162 116 258.5t324 96.5q130 0 293 -35l-37 -254q-122 39 -229 39q-62 0 -88.5 -22.5t-26.5 -55.5q0 -35 29.5 -55t117.5 -49q162 -47 227.5 -121t65.5 -205 q0 -166 -122 -268.5t-335 -102.5q-162 0 -335 39z" />
<glyph unicode="t" horiz-adv-x="790" d="M29 805v258h139l82 305h262v-305h209v-258h-209v-391q0 -101 26.5 -136.5t102.5 -35.5h80v-242q-88 -31 -246 -31q-305 0 -305 318v518h-141z" />
<glyph unicode="u" horiz-adv-x="1253" d="M113 387v676h342v-602q0 -109 31 -162t104 -53q59 0 100.5 26t100.5 88v703h342v-1063h-261l-24 115q-80 -79 -159 -113.5t-189 -34.5q-195 0 -291 107.5t-96 312.5z" />
<glyph unicode="v" horiz-adv-x="1087" d="M16 1063h357q76 -381 190 -719h2q107 340 172 719h334q-136 -578 -323 -1063h-408q-209 525 -324 1063z" />
<glyph unicode="w" horiz-adv-x="1724" d="M25 1063h354q57 -350 151 -715h2l166 715h346l177 -715h2q91 363 145 715h332q-100 -506 -295 -1063h-393l-156 623h-2l-145 -623h-398q-191 567 -286 1063z" />
<glyph unicode="x" horiz-adv-x="1134" d="M18 0l289 549l-266 514h391l141 -315l146 315h364l-247 -502l280 -561h-397l-152 342l-157 -342h-392z" />
<glyph unicode="y" horiz-adv-x="1085" d="M20 1063h357q73 -371 192 -721h2q108 343 162 721h334q-153 -714 -324 -1061q-63 -129 -127.5 -217t-132 -136.5t-133 -68.5t-143.5 -20q-85 0 -158 30l6 250h135q54 0 91.5 34.5t85.5 125.5q-103 222 -195.5 503.5t-151.5 559.5z" />
<glyph unicode="z" horiz-adv-x="976" d="M70 0v254l405 537h-379v272h793v-258l-400 -533h426v-272h-845z" />
<glyph unicode="{" horiz-adv-x="823" d="M49 489v261q88 5 137.5 64.5t49.5 164.5v162q0 232 75 343t260 111q84 0 158 -24v-238h-67q-61 0 -83 -38t-22 -150v-166q0 -137 -61.5 -233t-190.5 -128q129 -31 190.5 -126.5t61.5 -233.5v-211q0 -112 22 -150t83 -38h67v-238q-74 -24 -158 -24q-185 0 -260 111 t-75 343v209q0 105 -49 164t-138 65z" />
<glyph unicode="|" horiz-adv-x="1097" d="M387 -410v1987h324v-1987h-324z" />
<glyph unicode="}" horiz-adv-x="823" d="M115 -141h67q61 0 83 38t22 150v211q0 138 61.5 233.5t190.5 126.5q-129 32 -190.5 128t-61.5 233v166q0 112 -22 150t-83 38h-67v238q74 24 157 24q185 0 260.5 -111t75.5 -343v-162q0 -105 49.5 -164.5t137.5 -64.5v-261q-89 -6 -138 -65t-49 -164v-209 q0 -232 -75.5 -343t-260.5 -111q-83 0 -157 24v238z" />
<glyph unicode="~" d="M61 866v60q0 188 86.5 288.5t223.5 100.5q83 0 136 -22.5t99 -67.5q23 -21 52 -53.5t46 -44t41 -11.5q42 0 60 39t20 127h244v-59q0 -189 -86 -289t-223 -100q-83 0 -137.5 23t-98.5 67q-21 19 -43 43t-33.5 35.5t-27.5 20.5t-35 9q-42 0 -60 -39t-20 -127h-244z" />
<glyph d="M31 412v198h110q-2 31 -2 88q0 64 2 93h-110v198h133q48 223 185.5 347t375.5 124q178 0 319 -76l-86 -241q-103 47 -208 47q-200 0 -242 -201h311v-198h-338q0 -11 -1 -37.5t-1 -40.5q0 -18 1 -52.5t1 -50.5h338v-198h-309q14 -88 79.5 -131t164.5 -43q122 0 217 53 l82 -250q-154 -72 -324 -72q-259 0 -395.5 110t-177.5 333h-125z" />
<glyph horiz-adv-x="571" d="M39 -223q137 132 137 194q0 22 -18 48.5t-36 65t-18 89.5q0 79 50.5 129.5t130.5 50.5q101 0 154 -84q61 -94 24 -233q-49 -188 -253 -351q-20 -16 -42 -32z" />
<glyph d="M33 -229l22 237h90q51 0 84 12t52.5 39t28.5 62t14 90l34 367h-206v258h229l14 145q8 84 23 149.5t46 128.5t75.5 104t115 66t162.5 25q74 0 217 -20l-24 -238h-99q-97 0 -132 -45.5t-46 -157.5l-14 -157h250v-258h-273l-32 -353q-8 -85 -23 -150.5t-46.5 -129 t-77.5 -104.5t-118.5 -66t-167.5 -25q-84 0 -198 21z" />
<glyph horiz-adv-x="1021" d="M49 -190q70 54 100 93t26 68.5t-19.5 53.5t-33.5 65t-18 86q0 68 51 118t119 50q97 0 150 -81q60 -90 27 -221q-45 -177 -243 -325q-20 -15 -42 -30zM506 -199q72 57 102.5 97.5t27 71t-18 55t-32.5 65.5t-18 86q0 69 50 118.5t118 49.5q96 0 150 -81q60 -91 26 -223 q-45 -180 -245 -333q-20 -15 -41 -29z" />
<glyph unicode="&#x85;" horiz-adv-x="1644" d="M104 174q0 85 56 142t141 57t142 -57t57 -142t-57 -142t-142 -57t-141 57t-56 142zM625 174q0 85 56 142t140 57q85 0 142 -57t57 -142t-57 -142t-142 -57q-84 0 -140 57t-56 142zM1145 174q0 85 56 142t140 57q85 0 142 -57t57 -142t-57 -142t-142 -57q-84 0 -140 57 t-56 142z" />
<glyph d="M100 969v243h332q-37 140 -65 324h393q-19 -147 -66 -324h332v-243h-332l66 -207q0 -115 -19 -236t-59 -307h-238q-39 186 -58 307t-19 236l65 207h-332z" />
<glyph d="M100 324v243h330q-59 78 -59 203q0 116 57 199h-328v243h332q-44 166 -65 324h391q-21 -161 -64 -324h332v-243h-328q58 -81 58 -199q0 -120 -60 -203h330v-243h-332q43 -163 64 -324h-391q21 158 65 324h-332z" />
<glyph horiz-adv-x="776" d="M0 1321l344 291l348 -291l-114 -147l-234 165l-235 -165z" />
<glyph horiz-adv-x="2422" d="M61 1092q0 181 94 275.5t261 94.5q174 0 257 -90t83 -280q0 -194 -97 -283.5t-260 -89.5q-338 0 -338 373zM197 74l1069 1415l182 -129l-1069 -1415zM307 1092q0 -105 23.5 -146t75.5 -41q56 0 80 44t24 143q0 107 -23.5 145.5t-74.5 38.5q-56 0 -80.5 -42t-24.5 -142z M887 338q0 183 94 278t260 95q174 0 258 -91t84 -282q0 -99 -27 -172t-77 -116t-113 -63t-141 -20q-338 0 -338 371zM1133 338q0 -104 23 -144t75 -40q56 0 80 43t24 141q0 108 -22.5 147t-73.5 39q-57 0 -81.5 -42t-24.5 -144zM1659 338q0 183 94 278t260 95 q174 0 257 -90.5t83 -282.5q0 -99 -27 -172t-76 -116t-112 -63t-141 -20q-338 0 -338 371zM1905 338q0 -104 23 -144t75 -40q56 0 80 43t24 141q0 108 -22.5 147t-73.5 39q-57 0 -81.5 -42t-24.5 -144z" />
<glyph horiz-adv-x="1116" d="M80 23l37 288q154 -55 323 -55q126 0 180 36.5t54 110.5q0 68 -51 106t-189 85q-87 31 -148.5 66.5t-109.5 86t-72 119t-24 156.5q0 107 42 192t115.5 138.5t169.5 81.5t207 28q202 0 357 -57l-49 -275q-149 56 -295 56q-79 0 -122.5 -30.5t-43.5 -88.5 q0 -67 43.5 -102.5t146.5 -73.5q156 -57 221 -96q157 -96 179 -269q4 -32 4 -67q0 -125 -45.5 -220.5t-126.5 -154t-186.5 -88t-231.5 -29.5q-108 0 -188 12.5t-197 43.5zM223 1681l70 156l268 -104l268 104l70 -154l-338 -174z" />
<glyph horiz-adv-x="788" d="M61 573l306 504l241 -84l-205 -420l205 -419l-241 -84z" />
<glyph horiz-adv-x="1964" d="M76 711q0 351 186.5 548t534.5 197q105 0 235 -26h823v-275h-524v-283h447v-270h-447v-328h531v-274h-850q-135 -27 -230 -27q-174 0 -303 40.5t-220.5 127.5t-137 229.5t-45.5 340.5zM455 731q0 -237 77.5 -352t264.5 -115q94 0 174 45v811q-85 45 -187 45 q-329 0 -329 -434z" />
<glyph horiz-adv-x="571" d="M108 1248q49 189 255 353l38 29l129 -123q-137 -132 -137 -194q0 -23 18.5 -49.5t37 -65t18.5 -90.5q0 -78 -51 -128t-131 -50q-100 0 -153 84q-61 94 -24 234z" />
<glyph horiz-adv-x="571" d="M39 991q76 75 106.5 120t30.5 77q0 18 -11 39t-25 38.5t-25 51t-11 74.5q0 79 50.5 129.5t130.5 50.5q100 0 154 -84q60 -94 24 -234q-48 -188 -252 -352l-43 -33z" />
<glyph horiz-adv-x="1007" d="M110 1257q46 179 246 329q17 13 35 26l119 -121q-70 -56 -100.5 -96.5t-27 -70.5t18.5 -54t32.5 -64.5t17.5 -85.5q0 -67 -50 -115.5t-118 -48.5q-95 0 -148 80q-59 90 -25 221zM564 1255q45 176 243 323l37 26l114 -121q-69 -54 -98 -92.5t-25 -67.5t19 -53t33 -64.5 t18 -85.5q0 -67 -50.5 -115.5t-117.5 -48.5q-95 0 -148 80q-59 90 -25 219z" />
<glyph horiz-adv-x="1007" d="M49 1020q69 54 98 92t25 67.5t-19 53t-33 63.5t-18 84q0 68 50 117t118 49q95 0 148 -79q59 -90 26 -219q-45 -175 -242 -322q-18 -14 -38 -27zM498 1012q70 56 100.5 96t27 70t-18.5 54t-32.5 64t-17.5 84q0 68 50 117t118 49q95 0 148 -80q59 -90 25 -221 q-47 -179 -248 -329q-16 -13 -34 -25z" />
<glyph d="M129 709q0 180 127 306t307 126t305 -125t125 -305t-126 -307.5t-306 -127.5q-181 0 -306.5 125.5t-125.5 307.5z" />
<glyph d="M0 494v272h1126v-272h-1126z" />
<glyph horiz-adv-x="2048" d="M139 494v274h1770v-274h-1770z" />
<glyph horiz-adv-x="892" d="M0 1309q29 113 94.5 172t161.5 59q51 0 95 -14t69.5 -30t59.5 -30t67 -14t58 22t48 74l144 -92q-28 -112 -93.5 -171.5t-162.5 -59.5q-51 0 -95 13.5t-69.5 30.5t-59.5 30.5t-67 13.5t-58.5 -23t-48.5 -76z" />
<glyph horiz-adv-x="1447" d="M57 1262v168h475v-168h-131v-431h-213v431h-131zM573 831q0 203 25 599h262l101 -326l102 326h256q28 -343 33 -599h-185q-1 72 -10 373l-119 -373h-172l-121 373q-2 -133 -2 -373h-170z" />
<glyph horiz-adv-x="913" d="M68 6l45 264q143 -45 262 -45q127 0 127 80q0 38 -33 63t-115 50q-148 42 -217 113.5t-69 209.5q0 162 116 258.5t324 96.5q130 0 293 -35l-37 -254q-122 39 -229 39q-62 0 -88.5 -22.5t-26.5 -55.5q0 -35 29.5 -55t117.5 -49q162 -47 227.5 -121t65.5 -205 q0 -166 -122 -268.5t-335 -102.5q-162 0 -335 39zM106 1466l113 148l236 -166l233 166l111 -146l-346 -292z" />
<glyph horiz-adv-x="788" d="M180 154l205 419l-205 420l242 84l303 -504l-303 -503z" />
<glyph horiz-adv-x="1935" d="M66 510q0 276 148 431t427 155q246 0 379 -142q127 142 358 142q250 0 366 -127t116 -385q0 -56 -7 -142h-669q0 -104 59 -157.5t189 -53.5q187 0 360 43l29 -245q-215 -62 -441 -62q-260 0 -385 142q-133 -142 -377 -142q-278 0 -415 143t-137 400zM420 539 q0 -162 51.5 -234t165.5 -72q103 0 153 77t50 210q0 160 -51.5 233.5t-161.5 73.5q-106 0 -156.5 -77t-50.5 -211zM1184 651h340q7 211 -164 211q-86 0 -130 -59.5t-46 -151.5z" />
<glyph horiz-adv-x="1253" d="M6 1430h410q91 -293 229 -558q134 245 221 558h381q-179 -493 -436 -883v-547h-362v547q-257 407 -443 883zM260 1661q0 69 42 111.5t110 42.5q70 0 111.5 -42.5t41.5 -111.5q0 -68 -41.5 -109t-111.5 -41q-68 0 -110 41.5t-42 108.5zM713 1661q0 69 41.5 111.5 t109.5 42.5q69 0 111.5 -42.5t42.5 -111.5q0 -67 -42.5 -108.5t-111.5 -41.5q-68 0 -109.5 41.5t-41.5 108.5z" />
<glyph unicode="&#xa1;" horiz-adv-x="737" d="M133 1036q0 85 56 141t139 56t138.5 -56t55.5 -141q0 -83 -55.5 -138.5t-138.5 -55.5t-139 55.5t-56 138.5zM141 -328l39 1069h295l39 -1069h-373z" />
<glyph unicode="&#xa2;" d="M137 705q0 222 112.5 360.5t299.5 173.5v191h250v-179q127 -21 217 -61l-76 -258q-99 51 -209 51q-104 0 -174 -66.5t-70 -191.5q0 -130 63.5 -201t178.5 -71q132 0 238 69l71 -252q-128 -66 -239 -84v-186h-250v186q-192 29 -302 159t-110 360z" />
<glyph unicode="&#xa3;" d="M82 604v244h129q-23 126 -23 203q0 181 125 294t375 113q186 0 297 -26v-258q-124 30 -254 30q-108 0 -152 -38t-44 -117q0 -65 28 -201h328v-244h-279q9 -200 -114 -323h546v-281h-948v238q110 98 144 177.5t26 188.5h-184z" />
<glyph unicode="&#xa4;" d="M43 109l143 215q-90 115 -90 297q0 197 97 317l-150 223l272 125l109 -213q18 9 62.5 17t88.5 8q41 0 80 -7t50 -16l106 211l272 -123l-143 -217q88 -116 88 -305q0 -185 -98 -305l153 -227l-272 -125l-113 221q-44 -23 -147 -23q-96 0 -127 17l-109 -215zM401 645 q0 -118 43 -170.5t123 -52.5q79 0 117.5 56t38.5 153q0 227 -166 227q-76 0 -116 -60t-40 -153z" />
<glyph unicode="&#xa5;" d="M27 1430h350q75 -195 201 -420q108 172 188 420h330q-136 -358 -359 -691v-20h267v-199h-267v-155h267v-199h-267v-166h-346v166h-266v199h266v155h-266v199h266v20q-222 359 -364 691z" />
<glyph unicode="&#xa6;" d="M401 375h324v-785h-324v785zM401 811v782h324v-782h-324z" />
<glyph unicode="&#xa7;" horiz-adv-x="1243" d="M102 758q0 121 60 275t143 257q95 117 205 179.5t254 62.5q86 0 174 -12l-12 -265q-93 17 -166 17q-79 0 -111.5 -26t-32.5 -79q0 -31 22.5 -63t59 -61.5t83.5 -67.5t95.5 -77t95.5 -94t83.5 -116t59 -145t22.5 -178q0 -121 -56.5 -275.5t-138.5 -253.5 q-99 -131 -214.5 -192.5t-276.5 -61.5q-60 0 -170 12l14 279q84 -20 184 -20q142 0 142 98q0 39 -28.5 78.5t-74.5 78t-101 82t-110.5 99t-101.5 120t-74.5 155t-28.5 194.5zM385 821q0 -67 21 -123.5t56 -98.5t77.5 -80t88 -76.5t86 -78.5t72.5 -95.5t45 -118.5 q23 82 23 155q0 70 -21.5 129t-56.5 102t-78 81t-89 75.5t-86.5 76.5t-72 92.5t-44.5 115.5q-21 -82 -21 -156z" />
<glyph unicode="&#xa8;" horiz-adv-x="923" d="M0 1380q0 74 45 119t121 45q75 0 119.5 -45t44.5 -119q0 -75 -44.5 -119t-119.5 -44q-76 0 -121 44t-45 119zM449 1380q0 74 44 119t119 45t120.5 -45t45.5 -119q0 -75 -45.5 -119t-120.5 -44t-119 44t-44 119z" />
<glyph unicode="&#xa9;" horiz-adv-x="1624" d="M82 702q0 151 56.5 287t153.5 235t233.5 157.5t289.5 58.5q202 0 369 -97t261.5 -264.5t94.5 -367.5t-96 -369.5t-264.5 -269t-370.5 -99.5q-153 0 -288.5 57t-231.5 154.5t-151.5 232.5t-55.5 285zM315 711q0 -142 65 -259.5t180 -186t255 -68.5q212 0 352 145t140 360 q0 217 -143 366t-355 149q-213 0 -353.5 -145t-140.5 -361zM461 688q0 193 105 293t284 100q112 0 190 -37l-53 -198q-52 20 -108 20q-64 0 -99 -42t-35 -117q0 -162 138 -162q59 0 121 24l47 -198q-113 -47 -232 -47q-172 0 -265 94t-93 270z" />
<glyph unicode="&#xaa;" horiz-adv-x="964" d="M92 897q0 139 103 198.5t325 59.5h45v29q0 48 -28.5 70t-104.5 22q-118 0 -231 -45l-41 176q144 53 305 53q190 0 279.5 -64t89.5 -222v-492h-205l-23 92q-82 -112 -241 -112q-125 0 -199 59t-74 176zM127 344v229h709v-229h-709zM356 913q0 -33 21.5 -54t58.5 -21 q73 0 129 77v84h-53q-88 0 -122 -19t-34 -67z" />
<glyph unicode="&#xab;" horiz-adv-x="1259" d="M61 573l306 504l241 -84l-205 -420l205 -419l-241 -84zM553 573l289 474l235 -84l-190 -390l190 -389l-235 -84z" />
<glyph unicode="&#xac;" d="M53 532v256h987v-557h-266v301h-721z" />
<glyph unicode="&#xad;" d="M57 508v254h1012v-254h-1012z" />
<glyph unicode="&#xae;" horiz-adv-x="1175" d="M74 1092q0 105 40 200.5t108 165.5t164 111t204 41q144 0 261.5 -68.5t184 -186t66.5 -259.5q0 -141 -67.5 -260.5t-186.5 -190t-262 -70.5q-144 0 -261.5 68.5t-184 187t-66.5 261.5zM250 1096q0 -150 98.5 -251.5t241.5 -101.5q148 0 243 99.5t95 247.5 q0 151 -98.5 252.5t-243.5 101.5q-147 0 -241.5 -100.5t-94.5 -247.5zM387 854v483h227q84 0 138.5 -34.5t54.5 -108.5q0 -99 -70 -135l76 -205h-176l-49 158h-41v-158h-160zM547 1130h33q67 0 67 54q0 43 -61 43h-39v-97z" />
<glyph unicode="&#xaf;" horiz-adv-x="671" d="M0 1268v219h608v-219h-608z" />
<glyph unicode="&#xb0;" horiz-adv-x="780" d="M59 1229q0 132 94 222.5t240 90.5q150 0 239 -85t89 -220q0 -133 -94.5 -222t-241.5 -89q-150 0 -238 84.5t-88 218.5zM285 1235q0 -48 30.5 -81.5t75.5 -33.5q44 0 74.5 32.5t30.5 78.5q0 50 -31 82.5t-78 32.5q-43 0 -72.5 -32.5t-29.5 -78.5z" />
<glyph unicode="&#xb1;" d="M84 737v252h344v383h270v-383h344v-252h-344v-385h-270v385h-344zM102 0v254h922v-254h-922z" />
<glyph unicode="&#xb2;" horiz-adv-x="757" d="M63 750v190l146 100q74 52 101.5 88t27.5 70q0 57 -88 57q-68 0 -135 -26l-49 176q132 55 294 55q167 0 243.5 -55t76.5 -152q0 -69 -39 -124.5t-137 -118.5l-62 -41h260v-219h-639z" />
<glyph unicode="&#xb3;" horiz-adv-x="757" d="M88 1427q152 33 277 33q142 0 217 -49t75 -141q0 -63 -29.5 -99.5t-95.5 -58.5q70 -10 105 -54t35 -108t-25.5 -110t-71.5 -72t-102.5 -37.5t-126.5 -11.5q-139 0 -254 24v160q93 -8 168 -8q109 0 109 63q0 36 -28 51t-85 15h-74v156h76q113 0 113 61q0 51 -76 51 q-75 0 -164 -24z" />
<glyph unicode="&#xb4;" horiz-adv-x="677" d="M0 1274l264 336l240 -142l-338 -294z" />
<glyph unicode="&#xb5;" horiz-adv-x="1339" d="M135 -430v1493h344v-602q0 -109 31 -162t102 -53q59 0 100.5 26t100.5 88v703h344v-725q0 -52 17 -74t59 -22h61v-242q-97 -29 -178 -29q-212 0 -262 127q-78 -67 -147 -98t-152 -31q-56 0 -82 29v-428h-338z" />
<glyph unicode="&#xb6;" horiz-adv-x="1316" d="M39 977q0 199 129 326t342 127h661v-1657h-247v1423h-174v-1423h-246v768q-205 -13 -335 110t-130 326z" />
<glyph unicode="&#xb7;" horiz-adv-x="598" d="M100 637q0 85 57 142t142 57t141 -57t56 -142t-56 -141t-141 -56t-142 56t-57 141z" />
<glyph unicode="&#xb8;" horiz-adv-x="675" d="M88 -180h170q23 0 32 3t9 13t-10 37l-60 127h242l41 -72q57 -95 57 -164q0 -88 -67 -130t-178 -42q-139 0 -236 43v185z" />
<glyph unicode="&#xb9;" horiz-adv-x="757" d="M84 1341l278 89h189v-492h147v-186h-600v186h166v283l-131 -37z" />
<glyph unicode="&#xba;" horiz-adv-x="1003" d="M74 1044q0 196 110 306t318 110q203 0 307 -103t104 -290q0 -188 -111 -296.5t-317 -108.5q-207 0 -309 100t-102 282zM139 344v229h717v-229h-717zM352 1065q0 -108 35.5 -156.5t110.5 -48.5q69 0 103 53t34 140q0 211 -143 211q-71 0 -105.5 -54.5t-34.5 -144.5z" />
<glyph unicode="&#xbb;" horiz-adv-x="1259" d="M182 184l191 389l-191 390l236 84l289 -474l-289 -473zM651 154l205 419l-205 420l242 84l303 -504l-303 -503z" />
<glyph unicode="&#xbc;" horiz-adv-x="1740" d="M70 1307l276 141h236v-696h-303v411l-138 -51zM203 74l1067 1415l184 -129l-1069 -1415zM874 90v174l273 418h381v-412h96v-180h-96v-117h-260v117h-394zM1102 270h166v254h-2z" />
<glyph unicode="&#xbd;" horiz-adv-x="1773" d="M70 1307l276 141h236v-696h-303v411l-138 -51zM203 74l1067 1415l184 -129l-1069 -1415zM1022 0v188l145 105q74 52 100.5 87t26.5 69q0 59 -86 59q-66 0 -135 -27l-51 176q138 56 297 56q166 0 242.5 -56t76.5 -153q0 -68 -39.5 -123.5t-138.5 -118.5l-61 -43h262v-219 h-639z" />
<glyph unicode="&#xbe;" horiz-adv-x="1732" d="M113 741v162q83 -6 155 -6q107 0 107 64q0 36 -27 49.5t-86 13.5h-72v158h74q113 0 113 61q0 49 -76 49q-83 0 -145 -35l-41 160q113 43 270 43q279 0 279 -184q0 -65 -29 -102.5t-96 -59.5q139 -22 139 -162q0 -233 -326 -233q-123 0 -239 22zM217 74l1069 1415 l182 -129l-1069 -1415zM899 90v174l272 418h381v-412h97v-180h-97v-117h-260v117h-393zM1126 270h166v254h-2z" />
<glyph unicode="&#xbf;" horiz-adv-x="970" d="M74 12q0 74 19.5 136.5t50.5 106.5t68 84.5t72.5 80.5t63.5 83.5t42.5 104t8.5 133.5h301q16 -94 10.5 -159.5t-28.5 -119.5t-54 -91t-65.5 -73.5t-63.5 -66.5t-48 -71t-19 -86q0 -156 209 -156q108 0 215 14v-247q-133 -37 -278 -37q-257 0 -380.5 95t-123.5 269z M348 1036q0 85 56 141t139 56q85 0 140.5 -56t55.5 -141q0 -83 -55.5 -138.5t-140.5 -55.5q-83 0 -139 55.5t-56 138.5z" />
<glyph unicode="&#xc0;" horiz-adv-x="1443" d="M18 0q203 694 478 1430h444q291 -758 485 -1430h-405q-13 44 -39 144t-39 147h-489q-28 -91 -82 -291h-353zM346 1624l107 215l417 -174l-79 -158zM528 563h342q-109 354 -168 527h-2q-113 -335 -172 -527z" />
<glyph unicode="&#xc1;" horiz-adv-x="1443" d="M18 0q203 694 478 1430h444q291 -758 485 -1430h-405q-13 44 -39 144t-39 147h-489q-28 -91 -82 -291h-353zM528 563h342q-109 354 -168 527h-2q-113 -335 -172 -527zM543 1665l415 174l107 -215l-444 -117z" />
<glyph unicode="&#xc2;" horiz-adv-x="1443" d="M18 0q203 694 478 1430h444q291 -758 485 -1430h-405q-13 44 -39 144t-39 147h-489q-28 -91 -82 -291h-353zM379 1665l338 172l338 -170l-70 -158l-268 105l-268 -105zM528 563h342q-109 354 -168 527h-2q-113 -335 -172 -527z" />
<glyph unicode="&#xc3;" horiz-adv-x="1443" d="M18 0q203 694 478 1430h444q291 -758 485 -1430h-405q-13 44 -39 144t-39 147h-489q-28 -91 -82 -291h-353zM297 1604q29 102 97 156.5t167 54.5q53 0 98 -13t71 -28t60.5 -28t67.5 -13q65 0 111 88l147 -84q-28 -101 -96 -156t-168 -55q-53 0 -97.5 13t-70.5 28 t-60.5 28t-68.5 13q-66 0 -109 -88zM528 563h342q-109 354 -168 527h-2q-113 -335 -172 -527z" />
<glyph unicode="&#xc4;" horiz-adv-x="1443" d="M18 0q203 694 478 1430h444q291 -758 485 -1430h-405q-13 44 -39 144t-39 147h-489q-28 -91 -82 -291h-353zM338 1661q0 69 41 111.5t110 42.5t111.5 -42.5t42.5 -111.5q0 -67 -42.5 -108.5t-111.5 -41.5t-110 41t-41 109zM528 563h342q-109 354 -168 527h-2 q-113 -335 -172 -527zM791 1661q0 69 41 111.5t110 42.5t111.5 -42.5t42.5 -111.5q0 -67 -42.5 -108.5t-111.5 -41.5t-110 41t-41 109z" />
<glyph unicode="&#xc5;" horiz-adv-x="1443" d="M18 0q207 710 471 1413q-45 45 -45 133q0 114 73 177t208 63t205.5 -59.5t70.5 -167.5q0 -93 -53 -146q292 -771 477 -1413h-405q-13 44 -39 144t-39 147h-489q-28 -91 -82 -291h-353zM528 563h342q-109 354 -168 527h-2q-113 -335 -172 -527zM637 1556q0 -57 20.5 -80.5 t65.5 -23.5q84 0 84 98q0 56 -21.5 80.5t-66.5 24.5q-82 0 -82 -99z" />
<glyph unicode="&#xc6;" horiz-adv-x="1814" d="M-37 0q283 701 643 1430h1096v-275h-520v-283h448v-270h-448v-328h532v-274h-891v276h-401q-62 -150 -111 -276h-348zM526 549h297v616h-14q-125 -270 -283 -616z" />
<glyph unicode="&#xc7;" horiz-adv-x="1187" d="M76 692q0 184 51 330t143 241.5t220 146t284 50.5q212 0 377 -82l-102 -276q-121 59 -256 59q-157 0 -245.5 -124t-88.5 -320q0 -230 96.5 -338.5t267.5 -108.5q120 0 246 58l88 -277q-130 -62 -299 -78l27 -45q57 -95 57 -164q0 -88 -67.5 -130t-178.5 -42 q-138 0 -235 43v185h170q41 0 41 16q0 10 -10 37l-54 113q-257 40 -394.5 218.5t-137.5 487.5z" />
<glyph unicode="&#xc8;" horiz-adv-x="1124" d="M133 0v1430h883v-275h-524v-283h448v-270h-448v-328h532v-274h-891zM209 1624l104 215l418 -174l-80 -158z" />
<glyph unicode="&#xc9;" horiz-adv-x="1124" d="M133 0v1430h883v-275h-524v-283h448v-270h-448v-328h532v-274h-891zM371 1665l415 174l107 -215l-444 -117z" />
<glyph unicode="&#xca;" horiz-adv-x="1124" d="M133 0v1430h883v-275h-524v-283h448v-270h-448v-328h532v-274h-891zM231 1665l338 172l338 -170l-69 -158l-271 105l-266 -105z" />
<glyph unicode="&#xcb;" horiz-adv-x="1124" d="M133 0v1430h883v-275h-524v-283h448v-270h-448v-328h532v-274h-891zM195 1661q0 69 41.5 111.5t109.5 42.5q70 0 112 -42.5t42 -111.5q0 -68 -42 -109t-112 -41q-68 0 -109.5 41.5t-41.5 108.5zM647 1661q0 69 42 111.5t110 42.5q69 0 111 -42.5t42 -111.5 q0 -68 -42 -109t-111 -41q-68 0 -110 41.5t-42 108.5z" />
<glyph unicode="&#xcc;" horiz-adv-x="626" d="M0 1624l106 215l416 -174l-78 -158zM133 0v1430h361v-1430h-361z" />
<glyph unicode="&#xcd;" horiz-adv-x="626" d="M76 1665l418 174l106 -215l-444 -117zM133 0v1430h361v-1430h-361z" />
<glyph unicode="&#xce;" horiz-adv-x="626" d="M-25 1665l338 172l338 -170l-69 -158l-271 105l-266 -105zM133 0v1430h361v-1430h-361z" />
<glyph unicode="&#xcf;" horiz-adv-x="626" d="M-41 1661q0 69 41.5 111.5t110.5 42.5t110 -42.5t41 -111.5q0 -68 -41 -109t-110 -41t-110.5 41t-41.5 109zM133 0v1430h361v-1430h-361zM373 1661q0 69 41 111.5t110 42.5t110.5 -42.5t41.5 -111.5q0 -68 -41.5 -109t-110.5 -41t-110 41t-41 109z" />
<glyph unicode="&#xd0;" horiz-adv-x="1482" d="M12 584v262h142v584h524q355 0 546 -174.5t191 -522.5q0 -186 -54.5 -327.5t-156 -229.5t-241 -132t-314.5 -44h-495v584h-142zM512 279h143q190 0 288.5 113.5t98.5 324.5q0 97 -21 174.5t-65.5 138t-121 93t-181.5 32.5h-141v-309h236v-262h-236v-305z" />
<glyph unicode="&#xd1;" horiz-adv-x="1509" d="M133 0v1430h465l461 -924h4v924h313v-1430h-458l-467 934h-5v-934h-313zM340 1604q29 101 97.5 156t166.5 55q53 0 98 -13t71 -28t61 -28t69 -13q66 0 109 88l149 -84q-29 -101 -97.5 -156t-166.5 -55q-53 0 -98 13t-71 28t-61 28t-69 13q-63 0 -109 -88z" />
<glyph unicode="&#xd2;" horiz-adv-x="1579" d="M76 711q0 352 187.5 551.5t533.5 199.5q342 0 524 -180.5t182 -552.5q0 -366 -184 -564t-537 -198q-352 0 -529 177.5t-177 566.5zM414 1624l104 215l418 -174l-80 -158zM455 731q0 -237 77 -354t263 -117q329 0 329 449q0 226 -77.5 343t-264.5 117q-327 0 -327 -438z " />
<glyph unicode="&#xd3;" horiz-adv-x="1579" d="M76 711q0 352 187.5 551.5t533.5 199.5q342 0 524 -180.5t182 -552.5q0 -366 -184 -564t-537 -198q-352 0 -529 177.5t-177 566.5zM455 731q0 -237 77 -354t263 -117q329 0 329 449q0 226 -77.5 343t-264.5 117q-327 0 -327 -438zM647 1665l418 174l104 -215l-442 -117z " />
<glyph unicode="&#xd4;" horiz-adv-x="1579" d="M76 711q0 352 187.5 551.5t533.5 199.5q342 0 524 -180.5t182 -552.5q0 -366 -184 -564t-537 -198q-352 0 -529 177.5t-177 566.5zM455 731q0 -237 77 -354t263 -117q329 0 329 449q0 226 -77.5 343t-264.5 117q-327 0 -327 -438zM455 1665l336 172l339 -170l-71 -158 l-268 105l-269 -105z" />
<glyph unicode="&#xd5;" horiz-adv-x="1579" d="M76 711q0 352 187.5 551.5t533.5 199.5q342 0 524 -180.5t182 -552.5q0 -366 -184 -564t-537 -198q-352 0 -529 177.5t-177 566.5zM377 1604q29 102 97 156.5t167 54.5q53 0 98 -13t71 -28t60.5 -28t67.5 -13q65 0 111 88l147 -84q-28 -101 -96 -156t-168 -55 q-53 0 -97.5 13t-70.5 28t-60.5 28t-68.5 13q-66 0 -109 -88zM455 731q0 -237 77 -354t263 -117q329 0 329 449q0 226 -77.5 343t-264.5 117q-327 0 -327 -438z" />
<glyph unicode="&#xd6;" horiz-adv-x="1579" d="M76 711q0 352 187.5 551.5t533.5 199.5q342 0 524 -180.5t182 -552.5q0 -366 -184 -564t-537 -198q-352 0 -529 177.5t-177 566.5zM412 1661q0 69 41 111.5t110 42.5t110.5 -42.5t41.5 -111.5q0 -68 -41.5 -109t-110.5 -41t-110 41t-41 109zM455 731q0 -237 77 -354 t263 -117q329 0 329 449q0 226 -77.5 343t-264.5 117q-327 0 -327 -438zM864 1661q0 69 41.5 111.5t110.5 42.5t110 -42.5t41 -111.5q0 -68 -41 -109t-110 -41t-110.5 41t-41.5 109z" />
<glyph unicode="&#xd7;" d="M78 326l315 315l-313 313l172 172l313 -313l316 313l174 -170l-318 -317l318 -315l-172 -172l-316 317l-313 -315z" />
<glyph unicode="&#xd8;" horiz-adv-x="1579" d="M76 709q0 351 187.5 552t533.5 201q127 0 235 -30l119 237l207 -94l-115 -227q260 -178 260 -619q0 -366 -184 -564t-537 -198q-117 0 -223 25l-133 -262l-207 94l125 248q-268 166 -268 637zM432 733q0 -222 74 -334l397 770q-50 21 -121 21q-96 0 -166 -36t-109 -101 t-57 -144t-18 -176zM688 254q50 -16 107 -16q352 0 352 469q0 201 -66 311z" />
<glyph unicode="&#xd9;" horiz-adv-x="1492" d="M131 524v906h361v-881q0 -143 71 -217t191 -74q118 0 186 74t68 200v898h354v-893q0 -268 -158.5 -418t-460.5 -150q-300 0 -456 138.5t-156 416.5zM322 1624l106 215l416 -174l-80 -158z" />
<glyph unicode="&#xda;" horiz-adv-x="1492" d="M131 524v906h361v-881q0 -143 71 -217t191 -74q118 0 186 74t68 200v898h354v-893q0 -268 -158.5 -418t-460.5 -150q-300 0 -456 138.5t-156 416.5zM668 1665l415 174l107 -215l-445 -117z" />
<glyph unicode="&#xdb;" horiz-adv-x="1492" d="M131 524v906h361v-881q0 -143 71 -217t191 -74q118 0 186 74t68 200v898h354v-893q0 -268 -158.5 -418t-460.5 -150q-300 0 -456 138.5t-156 416.5zM418 1665l338 172l340 -170l-72 -158l-268 105l-269 -105z" />
<glyph unicode="&#xdc;" horiz-adv-x="1492" d="M131 524v906h361v-881q0 -143 71 -217t191 -74q118 0 186 74t68 200v898h354v-893q0 -268 -158.5 -418t-460.5 -150q-300 0 -456 138.5t-156 416.5zM367 1661q0 69 41 111.5t110 42.5t111.5 -42.5t42.5 -111.5q0 -67 -42.5 -108.5t-111.5 -41.5t-110 41t-41 109z M819 1661q0 69 41.5 111.5t110.5 42.5t111 -42.5t42 -111.5q0 -68 -42 -109t-111 -41t-110.5 41t-41.5 109z" />
<glyph unicode="&#xdd;" horiz-adv-x="1253" d="M6 1430h410q91 -293 229 -558q134 245 221 558h381q-179 -493 -436 -883v-547h-362v547q-257 407 -443 883zM551 1665l418 174l104 -215l-442 -117z" />
<glyph unicode="&#xde;" horiz-adv-x="1230" d="M133 0v1430h361v-220h104q121 0 209 -16q179 -33 277 -142t98 -288q0 -258 -151 -389t-437 -131h-100v-244h-361zM494 516h112q101 0 149 58.5t48 162.5q0 150 -115 189q-35 12 -106 12h-88v-422z" />
<glyph unicode="&#xdf;" horiz-adv-x="1302" d="M121 0v1040q0 254 139 390.5t399 136.5q231 0 356.5 -95.5t125.5 -259.5q0 -60 -16.5 -106t-41.5 -72t-53.5 -49t-53.5 -39.5t-41.5 -41t-16.5 -54.5q0 -42 27 -70.5t95 -68.5q120 -75 173 -154t53 -190q0 -173 -118 -284.5t-327 -111.5q-141 0 -252 33l37 262 q95 -30 168 -30q64 0 97.5 29.5t33.5 72.5q0 44 -32 77t-107 81q-109 71 -153 143t-44 172q0 59 22 108.5t53.5 82.5t62.5 62t53 60.5t22 63.5q0 49 -36 84t-107 35q-97 0 -135.5 -63.5t-38.5 -186.5v-1057h-344z" />
<glyph unicode="&#xe0;" horiz-adv-x="1161" d="M59 303q0 188 142 273.5t432 85.5h72v43q0 76 -40 109.5t-151 33.5q-157 0 -313 -64l-56 238q83 34 194.5 54t215.5 20q253 0 370 -90.5t117 -292.5v-713h-260l-22 94q-130 -127 -328 -127q-167 0 -270 86t-103 250zM227 1468l238 142l262 -332l-166 -104zM393 322 q0 -51 33 -82t96 -31q100 0 183 90v154h-80q-124 0 -178 -31t-54 -100z" />
<glyph unicode="&#xe1;" horiz-adv-x="1161" d="M59 303q0 188 142 273.5t432 85.5h72v43q0 76 -40 109.5t-151 33.5q-157 0 -313 -64l-56 238q83 34 194.5 54t215.5 20q253 0 370 -90.5t117 -292.5v-713h-260l-22 94q-130 -127 -328 -127q-167 0 -270 86t-103 250zM391 1274l264 336l240 -142l-338 -294zM393 322 q0 -51 33 -82t96 -31q100 0 183 90v154h-80q-124 0 -178 -31t-54 -100z" />
<glyph unicode="&#xe2;" horiz-adv-x="1161" d="M59 303q0 188 142 273.5t432 85.5h72v43q0 76 -40 109.5t-151 33.5q-157 0 -313 -64l-56 238q83 34 194.5 54t215.5 20q253 0 370 -90.5t117 -292.5v-713h-260l-22 94q-130 -127 -328 -127q-167 0 -270 86t-103 250zM248 1321l346 291l346 -291l-115 -147l-233 165 l-236 -165zM393 322q0 -51 33 -82t96 -31q100 0 183 90v154h-80q-124 0 -178 -31t-54 -100z" />
<glyph unicode="&#xe3;" horiz-adv-x="1161" d="M59 303q0 188 142 273.5t432 85.5h72v43q0 76 -40 109.5t-151 33.5q-157 0 -313 -64l-56 238q83 34 194.5 54t215.5 20q253 0 370 -90.5t117 -292.5v-713h-260l-22 94q-130 -127 -328 -127q-167 0 -270 86t-103 250zM186 1309q29 113 94.5 172t161.5 59q51 0 95 -14 t69.5 -30t60 -30t68.5 -14q64 0 107 96l141 -92q-28 -113 -92.5 -172t-161.5 -59q-52 0 -96.5 13.5t-70 30.5t-59.5 30.5t-67 13.5t-58 -23t-48 -76zM393 322q0 -51 33 -82t96 -31q100 0 183 90v154h-80q-124 0 -178 -31t-54 -100z" />
<glyph unicode="&#xe4;" horiz-adv-x="1161" d="M59 303q0 188 142 273.5t432 85.5h72v43q0 76 -40 109.5t-151 33.5q-157 0 -313 -64l-56 238q83 34 194.5 54t215.5 20q253 0 370 -90.5t117 -292.5v-713h-260l-22 94q-130 -127 -328 -127q-167 0 -270 86t-103 250zM207 1380q0 74 45.5 119t120.5 45t120.5 -45 t45.5 -119q0 -75 -45.5 -119t-120.5 -44t-120.5 44t-45.5 119zM393 322q0 -51 33 -82t96 -31q100 0 183 90v154h-80q-124 0 -178 -31t-54 -100zM655 1380q0 74 45.5 119t120.5 45t119.5 -45t44.5 -119q0 -75 -44.5 -119t-119.5 -44t-120.5 44t-45.5 119z" />
<glyph unicode="&#xe5;" horiz-adv-x="1161" d="M59 303q0 188 142 273.5t432 85.5h72v43q0 76 -40 109.5t-151 33.5q-157 0 -313 -64l-56 238q83 34 194.5 54t215.5 20q253 0 370 -90.5t117 -292.5v-713h-260l-22 94q-130 -127 -328 -127q-167 0 -270 86t-103 250zM303 1415q0 116 71.5 179t205.5 63t202 -59t68 -168 q0 -112 -72 -175t-207 -63t-201.5 58t-66.5 165zM393 322q0 -51 33 -82t96 -31q100 0 183 90v154h-80q-124 0 -178 -31t-54 -100zM492 1427q0 -56 20.5 -80t65.5 -24q84 0 84 98q0 56 -22 80.5t-67 24.5q-81 0 -81 -99z" />
<glyph unicode="&#xe6;" horiz-adv-x="1781" d="M59 303q0 190 136.5 276.5t422.5 86.5h74v39q0 77 -37 110t-147 33q-151 0 -307 -64l-56 238q84 34 193 54t213 20q245 0 352 -107q115 107 322 107q249 0 364 -127t115 -385q0 -48 -4 -146h-670q0 -102 58.5 -154.5t189.5 -52.5q187 0 360 43l29 -245q-215 -62 -440 -62 q-286 0 -418 144q-78 -71 -166.5 -107.5t-224.5 -36.5q-165 0 -262 85.5t-97 250.5zM393 324q0 -52 30.5 -83.5t86.5 -31.5q101 0 182 108v140h-82q-120 0 -168.5 -31.5t-48.5 -101.5zM1030 649h340q10 213 -164 213q-86 0 -130 -60t-46 -153z" />
<glyph unicode="&#xe7;" horiz-adv-x="921" d="M66 510q0 280 145 430t395 150q155 0 271 -54l-70 -254q-82 35 -170 35q-109 0 -163 -72t-54 -208q0 -141 53 -212t168 -71q94 0 186 39l60 -252q-94 -41 -197 -57l31 -56q57 -95 57 -164q0 -88 -67.5 -130t-178.5 -42q-138 0 -235 43v185h170q41 0 41 16q0 10 -10 37 l-54 111q-188 32 -283 167.5t-95 358.5z" />
<glyph unicode="&#xe8;" horiz-adv-x="1169" d="M66 516q0 274 141 427t405 153q248 0 364 -127.5t116 -384.5q0 -20 -5 -142h-671q0 -104 59 -157.5t189 -53.5q189 0 362 43l29 -245q-215 -62 -441 -62q-280 0 -414 133t-134 416zM254 1468l238 142l262 -332l-166 -104zM416 651h340q10 211 -162 211 q-86 0 -130.5 -59.5t-47.5 -151.5z" />
<glyph unicode="&#xe9;" horiz-adv-x="1169" d="M66 516q0 274 141 427t405 153q248 0 364 -127.5t116 -384.5q0 -20 -5 -142h-671q0 -104 59 -157.5t189 -53.5q189 0 362 43l29 -245q-215 -62 -441 -62q-280 0 -414 133t-134 416zM416 651h340q10 211 -162 211q-86 0 -130.5 -59.5t-47.5 -151.5zM430 1274l264 336 l240 -142l-338 -294z" />
<glyph unicode="&#xea;" horiz-adv-x="1169" d="M66 516q0 274 141 427t405 153q248 0 364 -127.5t116 -384.5q0 -20 -5 -142h-671q0 -104 59 -157.5t189 -53.5q189 0 362 43l29 -245q-215 -62 -441 -62q-280 0 -414 133t-134 416zM250 1321l344 291l348 -291l-115 -147l-233 165l-236 -165zM416 651h340 q10 211 -162 211q-86 0 -130.5 -59.5t-47.5 -151.5z" />
<glyph unicode="&#xeb;" horiz-adv-x="1169" d="M66 516q0 274 141 427t405 153q248 0 364 -127.5t116 -384.5q0 -20 -5 -142h-671q0 -104 59 -157.5t189 -53.5q189 0 362 43l29 -245q-215 -62 -441 -62q-280 0 -414 133t-134 416zM205 1380q0 74 45 119t121 45q75 0 119.5 -45t44.5 -119q0 -75 -44.5 -119t-119.5 -44 q-76 0 -121 44t-45 119zM416 651h340q10 211 -162 211q-86 0 -130.5 -59.5t-47.5 -151.5zM653 1380q0 74 45 119t121 45q73 0 118.5 -45t45.5 -119q0 -75 -45 -119t-119 -44q-76 0 -121 44t-45 119z" />
<glyph unicode="&#xec;" horiz-adv-x="641" d="M0 1468l240 142l260 -332l-166 -104zM27 805v258h493v-1063h-342v805h-151z" />
<glyph unicode="&#xed;" horiz-adv-x="641" d="M27 805v258h493v-1063h-342v805h-151zM113 1274l264 336l239 -142l-337 -294z" />
<glyph unicode="&#xee;" horiz-adv-x="641" d="M0 1321l344 291l348 -291l-114 -147l-234 165l-235 -165zM27 805v258h493v-1063h-342v805h-151z" />
<glyph unicode="&#xef;" horiz-adv-x="641" d="M-53 1380q0 74 45.5 119t120.5 45t120.5 -45t45.5 -119q0 -75 -45.5 -119t-120.5 -44t-120.5 44t-45.5 119zM27 805v258h493v-1063h-342v805h-151zM381 1380q0 74 45.5 119t120.5 45t119.5 -45t44.5 -119q0 -75 -44.5 -119t-119.5 -44t-120.5 44t-45.5 119z" />
<glyph unicode="&#xf0;" horiz-adv-x="1249" d="M68 518q0 251 140 401t365 150q48 0 91 -16q-58 96 -93 141l-176 -55l-106 172l157 49q-46 56 -108 117l338 92q44 -41 106 -115l226 68l104 -172l-201 -62q254 -358 254 -715q0 -274 -153 -440t-418 -166q-139 0 -241.5 40.5t-164 116t-91 173.5t-29.5 221zM418 545 q0 -159 55 -236.5t150 -77.5q91 0 143.5 78.5t52.5 218.5q0 123 -35 238q-70 37 -172 37q-93 0 -143.5 -74t-50.5 -184z" />
<glyph unicode="&#xf1;" horiz-adv-x="1253" d="M119 0v1063h260l27 -115q80 79 159 113.5t189 34.5q195 0 291 -107.5t96 -312.5v-676h-344v602q0 109 -31 162t-102 53q-58 0 -100 -26t-101 -89v-702h-344zM233 1309q28 113 93 172t163 59q51 0 95 -14t69.5 -30t59.5 -30t67 -14t58.5 22.5t48.5 73.5l143 -92 q-29 -113 -94.5 -172t-161.5 -59q-52 0 -96 13.5t-69.5 30.5t-59.5 30.5t-68 13.5q-31 0 -56 -23t-48 -76z" />
<glyph unicode="&#xf2;" horiz-adv-x="1261" d="M66 510q0 276 148 431t427 155q274 0 414.5 -146t140.5 -409q0 -266 -150.5 -420t-427.5 -154q-278 0 -415 143t-137 400zM301 1468l240 142l260 -332l-166 -104zM420 539q0 -162 51.5 -234t165.5 -72q103 0 153 77t50 210q0 158 -51.5 232.5t-161.5 74.5 q-106 0 -156.5 -77t-50.5 -211z" />
<glyph unicode="&#xf3;" horiz-adv-x="1261" d="M66 510q0 276 148 431t427 155q274 0 414.5 -146t140.5 -409q0 -266 -150.5 -420t-427.5 -154q-278 0 -415 143t-137 400zM420 539q0 -162 51.5 -234t165.5 -72q103 0 153 77t50 210q0 158 -51.5 232.5t-161.5 74.5q-106 0 -156.5 -77t-50.5 -211zM451 1274l264 336 l239 -142l-338 -294z" />
<glyph unicode="&#xf4;" horiz-adv-x="1261" d="M66 510q0 276 148 431t427 155q274 0 414.5 -146t140.5 -409q0 -266 -150.5 -420t-427.5 -154q-278 0 -415 143t-137 400zM285 1321l346 291l346 -291l-115 -147l-233 165l-236 -165zM420 539q0 -162 51.5 -234t165.5 -72q103 0 153 77t50 210q0 158 -51.5 232.5 t-161.5 74.5q-106 0 -156.5 -77t-50.5 -211z" />
<glyph unicode="&#xf5;" horiz-adv-x="1261" d="M66 510q0 276 148 431t427 155q274 0 414.5 -146t140.5 -409q0 -266 -150.5 -420t-427.5 -154q-278 0 -415 143t-137 400zM236 1309q29 113 94.5 172t161.5 59q51 0 95 -14t69 -30t59 -30t67 -14t58.5 22.5t48.5 73.5l143 -92q-28 -112 -93.5 -171.5t-162.5 -59.5 q-52 0 -96 13.5t-69.5 30.5t-59.5 30.5t-68 13.5q-31 0 -56 -23t-48 -76zM420 539q0 -162 51.5 -234t165.5 -72q103 0 153 77t50 210q0 158 -51.5 232.5t-161.5 74.5q-106 0 -156.5 -77t-50.5 -211z" />
<glyph unicode="&#xf6;" horiz-adv-x="1261" d="M66 510q0 276 148 431t427 155q274 0 414.5 -146t140.5 -409q0 -266 -150.5 -420t-427.5 -154q-278 0 -415 143t-137 400zM244 1380q0 74 45.5 119t120.5 45t120 -45t45 -119q0 -75 -45 -119t-120 -44t-120.5 44t-45.5 119zM420 539q0 -162 51.5 -234t165.5 -72 q103 0 153 77t50 210q0 158 -51.5 232.5t-161.5 74.5q-106 0 -156.5 -77t-50.5 -211zM692 1380q0 74 45.5 119t120.5 45t119.5 -45t44.5 -119q0 -75 -44.5 -119t-119.5 -44t-120.5 44t-45.5 119z" />
<glyph unicode="&#xf7;" d="M49 508v254h1022v-254h-1022zM367 207q0 81 56 135.5t138 54.5t137.5 -54.5t55.5 -135.5q0 -83 -56.5 -138t-138.5 -55t-137 55t-55 138zM367 1065q0 82 55 137t137 55t138.5 -55.5t56.5 -136.5q0 -83 -55.5 -138t-137.5 -55t-138 55t-56 138z" />
<glyph unicode="&#xf8;" horiz-adv-x="1261" d="M66 510q0 277 148 431.5t427 154.5q76 0 162 -21l119 225l190 -77l-117 -222q201 -139 201 -458q0 -266 -150.5 -421t-427.5 -155q-81 0 -159 19l-121 -232l-191 76l119 229q-200 131 -200 451zM389 539q0 -120 37 -181l262 484q-24 12 -63 12q-122 0 -179 -84.5 t-57 -230.5zM573 217q30 -10 66 -10q120 0 175.5 84t55.5 229q0 117 -36 182z" />
<glyph unicode="&#xf9;" horiz-adv-x="1253" d="M113 387v676h342v-602q0 -109 31 -162t104 -53q59 0 100.5 26t100.5 88v703h342v-1063h-261l-24 115q-80 -79 -159 -113.5t-189 -34.5q-195 0 -291 107.5t-96 312.5zM281 1468l237 142l262 -332l-166 -104z" />
<glyph unicode="&#xfa;" horiz-adv-x="1253" d="M113 387v676h342v-602q0 -109 31 -162t104 -53q59 0 100.5 26t100.5 88v703h342v-1063h-261l-24 115q-80 -79 -159 -113.5t-189 -34.5q-195 0 -291 107.5t-96 312.5zM455 1274l262 336l241 -142l-337 -294z" />
<glyph unicode="&#xfb;" horiz-adv-x="1253" d="M113 387v676h342v-602q0 -109 31 -162t104 -53q59 0 100.5 26t100.5 88v703h342v-1063h-261l-24 115q-80 -79 -159 -113.5t-189 -34.5q-195 0 -291 107.5t-96 312.5zM270 1321l346 291l347 -291l-115 -147l-234 165l-235 -165z" />
<glyph unicode="&#xfc;" horiz-adv-x="1253" d="M113 387v676h342v-602q0 -109 31 -162t104 -53q59 0 100.5 26t100.5 88v703h342v-1063h-261l-24 115q-80 -79 -159 -113.5t-189 -34.5q-195 0 -291 107.5t-96 312.5zM236 1380q0 74 44 119t119 45t120.5 -45t45.5 -119q0 -75 -45.5 -119t-120.5 -44t-119 44t-44 119z M682 1380q0 74 45.5 119t120.5 45t120.5 -45t45.5 -119q0 -75 -45.5 -119t-120.5 -44t-120.5 44t-45.5 119z" />
<glyph unicode="&#xfd;" horiz-adv-x="1085" d="M20 1063h357q73 -371 192 -721h2q108 343 162 721h334q-153 -714 -324 -1061q-63 -129 -127.5 -217t-132 -136.5t-133 -68.5t-143.5 -20q-85 0 -158 30l6 250h135q54 0 91.5 34.5t85.5 125.5q-103 222 -195.5 503.5t-151.5 559.5zM391 1274l262 336l242 -142l-338 -294z " />
<glyph unicode="&#xfe;" horiz-adv-x="1255" d="M119 -430v1966h344v-539q118 99 270 99q115 0 203.5 -39.5t142.5 -110.5t81.5 -164t27.5 -204q0 -131 -34 -239.5t-101 -190.5t-175 -127.5t-247 -45.5q-85 0 -168 17v-422h-344zM463 289q62 -43 153 -43q105 0 159 72t54 214q0 147 -38.5 216t-137.5 69q-109 0 -190 -94 v-434z" />
<glyph unicode="&#xff;" horiz-adv-x="1085" d="M20 1063h357q73 -371 192 -721h2q108 343 162 721h334q-153 -714 -324 -1061q-63 -129 -127.5 -217t-132 -136.5t-133 -68.5t-143.5 -20q-85 0 -158 30l6 250h135q54 0 91.5 34.5t85.5 125.5q-103 222 -195.5 503.5t-151.5 559.5zM174 1380q0 74 45.5 119t120.5 45 t120.5 -45t45.5 -119q0 -75 -45.5 -119t-120.5 -44t-120.5 44t-45.5 119zM623 1380q0 74 45 119t120 45t119.5 -45t44.5 -119q0 -75 -44.5 -119t-119.5 -44t-120 44t-45 119z" />
<glyph unicode="&#x2000;" horiz-adv-x="919" />
<glyph unicode="&#x2001;" horiz-adv-x="1839" />
<glyph unicode="&#x2002;" horiz-adv-x="919" />
<glyph unicode="&#x2003;" horiz-adv-x="1839" />
<glyph unicode="&#x2004;" horiz-adv-x="613" />
<glyph unicode="&#x2005;" horiz-adv-x="459" />
<glyph unicode="&#x2006;" horiz-adv-x="306" />
<glyph unicode="&#x2007;" horiz-adv-x="306" />
<glyph unicode="&#x2008;" horiz-adv-x="229" />
<glyph unicode="&#x2009;" horiz-adv-x="367" />
<glyph unicode="&#x200a;" horiz-adv-x="102" />
<glyph unicode="&#x2010;" horiz-adv-x="634" d="M74 412v278h549v-278h-549z" />
<glyph unicode="&#x2011;" horiz-adv-x="634" d="M74 412v278h549v-278h-549z" />
<glyph unicode="&#x2012;" horiz-adv-x="634" d="M74 412v278h549v-278h-549z" />
<glyph unicode="&#x2013;" horiz-adv-x="1109" d="M74 412v278h1024v-278h-1024z" />
<glyph unicode="&#x2014;" horiz-adv-x="2133" d="M74 412v278h2048v-278h-2048z" />
<glyph unicode="&#x202f;" horiz-adv-x="367" />
<glyph unicode="&#x205f;" horiz-adv-x="459" />
<glyph unicode="&#x25fc;" horiz-adv-x="1064" d="M0 0v1065h1065v-1065h-1065z" />
</font>
</defs>
</svg>
